<svg id="files_and_folder" xmlns="http://www.w3.org/2000/svg" width="191.626" height="156.313" viewBox="0 0 191.626 156.313">
  <path id="Caminho_41" data-name="Caminho 41" d="M145.364,143.49H140.8v-1.823h4.564a2.272,2.272,0,0,0,0-4.544H140.8V135.3h4.564a4.095,4.095,0,1,1,0,8.19Z" transform="translate(-83.135 -72.686)" fill="#5b6eb2"/>
  <path id="Caminho_42" data-name="Caminho 42" d="M145.364,143.49H140.8v-1.823h4.564a2.272,2.272,0,0,0,0-4.544H140.8V135.3h4.564a4.095,4.095,0,1,1,0,8.19Z" transform="translate(-83.135 -72.686)" fill="#fff" opacity="0.61"/>
  <ellipse id="Elipse_12" data-name="Elipse 12" cx="95.813" cy="13.328" rx="95.813" ry="13.328" transform="translate(0 129.657)" fill="#e6e6e6" opacity="0.45"/>
  <path id="Caminho_43" data-name="Caminho 43" d="M261.78,91.2c-.9,13.916-7.542,48.616-52.46,29.1l1.546-4.584s22.2,3.916,28.069-4.319c4.967-6.974,4.887-29.846,15.851-28.756a7.985,7.985,0,0,1,6.994,8.56Z" transform="translate(-106.401 -54.794)" fill="#5b6eb2"/>
  <path id="Caminho_44" data-name="Caminho 44" d="M261.78,91.2c-.9,13.916-7.542,48.616-52.46,29.1l1.546-4.584s22.2,3.916,28.069-4.319c4.967-6.974,4.887-29.846,15.851-28.756a7.985,7.985,0,0,1,6.994,8.56Z" transform="translate(-106.401 -54.794)" opacity="0.08"/>
  <path id="Caminho_45" data-name="Caminho 45" d="M226.105,53.577a31.245,31.245,0,0,0,2.642,8.044,2.556,2.556,0,0,0,3.5.958,5.654,5.654,0,0,0,3.144-5.284l.3-4.7a4.564,4.564,0,0,0-3.23-4.181C229.124,47.2,225.4,50.552,226.105,53.577Z" transform="translate(-112.07 -43.1)" fill="#f4a28c"/>
  <path id="Caminho_46" data-name="Caminho 46" d="M239.579,57.22l9.887,9.98-5.9,6.413-6.2-11.928Z" transform="translate(-115.921 -46.175)" fill="#f4a28c"/>
  <path id="Caminho_47" data-name="Caminho 47" d="M235.761,59.469s-.482-1.9.977-2.146,2.173,2.5.31,3.3Z" transform="translate(-115.352 -46.205)" fill="#f4a28c"/>
  <path id="Caminho_48" data-name="Caminho 48" d="M226.812,61.1l-.839,2.265a.819.819,0,0,0,.826,1.1l1.981-.159Z" transform="translate(-112.038 -47.492)" fill="#f4a28c"/>
  <path id="Caminho_49" data-name="Caminho 49" d="M262.1,248.79s-1.321,2.411-3.652,2.252-3.3,1.981-1.321,2.913,7.754-.938,7.754-.938l.363-3.355Z" transform="translate(-122.272 -111.221)" fill="#5b6eb2"/>
  <path id="Caminho_50" data-name="Caminho 50" d="M307.209,242.924s1.486,2.318.211,4.286.172,3.851,1.922,2.549,2.926-7.265,2.926-7.265L309.5,240.56Z" transform="translate(-139.545 -108.426)" fill="#5b6eb2"/>
  <path id="Caminho_51" data-name="Caminho 51" d="M238.87,65.223A10.263,10.263,0,0,0,239.735,62s3.844,3.553,1.268,7.331Z" transform="translate(-116.434 -47.798)" fill="#ce8172" opacity="0.31"/>
  <path id="Caminho_52" data-name="Caminho 52" d="M263.314,170l-.284,52.9h6.842l8.758-53.576Z" transform="translate(-124.637 -84.238)" fill="#24285b"/>
  <path id="Caminho_53" data-name="Caminho 53" d="M244.608,74.18A20.249,20.249,0,0,1,256.7,69.749c7.133-.073,27.026,1.149,25.665,25.481-1.01,18.031-1.526,37.976-1.526,37.976l-26.194,4.366S223.361,93.3,244.608,74.18Z" transform="translate(-115.871 -50.428)" fill="#5b6eb2"/>
  <path id="Caminho_54" data-name="Caminho 54" d="M269.333,85.72s-5.488,6.6-2.094,18.678,8.163,26.636-8.19,33.954l3.012,4.623,26.194-4.366.343-11.149,4.207-20.646Z" transform="translate(-123.286 -55.852)" opacity="0.08"/>
  <rect id="Retângulo_13" data-name="Retângulo 13" width="44.231" height="70.458" transform="translate(36.827 72.527)" fill="#a5a5a5" opacity="0.79"/>
  <rect id="Retângulo_14" data-name="Retângulo 14" width="38.26" height="70.458" transform="translate(56.132 72.527)" fill="#e6e6e6"/>
  <path id="Caminho_55" data-name="Caminho 55" d="M169.784,156.55l-.7,4.035H150.3v17.027h31.24V156.55Z" transform="translate(-86.361 -79.902)" fill="#ffd200"/>
  <path id="Caminho_56" data-name="Caminho 56" d="M169.784,156.55l-.7,4.035H150.3v17.027h31.24V156.55Z" transform="translate(-86.361 -79.902)" opacity="0.08"/>
  <path id="Caminho_57" data-name="Caminho 57" d="M176.694,156.55l-.7,4.035H157.21v17.027h31.24V156.55Z" transform="translate(-88.707 -79.902)" fill="#ffd200"/>
  <path id="Caminho_58" data-name="Caminho 58" d="M254.763,118.686l1.281,4.762-17.264,7.4,8.117,18.922,28.717-12.318L269,122.048l-1.506-3.514-1.929-4.485Z" transform="translate(-116.404 -65.471)" fill="#ffd200"/>
  <path id="Caminho_59" data-name="Caminho 59" d="M254.763,118.686l1.281,4.762-17.264,7.4,8.117,18.922,28.717-12.318L269,122.048l-1.506-3.514-1.929-4.485Z" transform="translate(-116.404 -65.471)" opacity="0.08"/>
  <path id="Caminho_60" data-name="Caminho 60" d="M261.113,115.96l1.281,4.769-17.264,7.4,8.117,18.922,28.71-12.311-6.6-15.415-1.506-3.507-1.929-4.484Z" transform="translate(-118.56 -64.548)" fill="#ffd200"/>
  <path id="Caminho_61" data-name="Caminho 61" d="M182.407,156.55l-.7,4.035H162.93v17.027h31.24V156.55Z" transform="translate(-90.649 -79.902)" fill="#ffd200"/>
  <path id="Caminho_62" data-name="Caminho 62" d="M182.407,156.55l-.7,4.035H162.93v17.027h31.24V156.55Z" transform="translate(-90.649 -79.902)" opacity="0.08"/>
  <rect id="Retângulo_15" data-name="Retângulo 15" width="29.661" height="20.177" transform="translate(71.763 75.602) rotate(-8.28)" fill="#24285b"/>
  <rect id="Retângulo_16" data-name="Retângulo 16" width="29.661" height="20.177" transform="translate(71.763 75.602) rotate(-8.28)" fill="#fff" opacity="0.12"/>
  <rect id="Retângulo_17" data-name="Retângulo 17" width="29.661" height="20.177" transform="translate(73.303 72.742) rotate(-8.28)" fill="#24285b"/>
  <path id="Caminho_63" data-name="Caminho 63" d="M189.317,156.55l-.7,4.035H169.84v17.027h31.24V156.55Z" transform="translate(-92.996 -79.902)" fill="#ffd200"/>
  <rect id="Retângulo_18" data-name="Retângulo 18" width="49.231" height="19.219" transform="translate(62.189 85.776)" fill="#a5a5a5"/>
  <path id="Caminho_64" data-name="Caminho 64" d="M280.635,124a140.164,140.164,0,0,1-9.246,10.746,42.125,42.125,0,0,1-8.368,6.552c-1.777,1.09-3.646,3.031-2.391,6.07h9.781l12.78-17.337Z" transform="translate(-123.683 -68.85)" opacity="0.08"/>
  <rect id="Retângulo_19" data-name="Retângulo 19" width="33.697" height="19.219" transform="translate(77.716 85.776)" fill="#f2f2f2"/>
  <rect id="Retângulo_20" data-name="Retângulo 20" width="38.98" height="19.219" transform="translate(62.189 113.878)" fill="#f2f2f2"/>
  <rect id="Retângulo_21" data-name="Retângulo 21" width="11.155" height="12.152" transform="translate(49.462 60.632)" fill="#5b6eb2"/>
  <circle id="Elipse_13" data-name="Elipse 13" cx="2.701" cy="2.701" r="2.701" transform="translate(92.458 91.912)" fill="#a5a5a5"/>
  <circle id="Elipse_14" data-name="Elipse 14" cx="2.701" cy="2.701" r="2.701" transform="translate(79.559 120.021)" fill="#a5a5a5"/>
  <path id="Caminho_65" data-name="Caminho 65" d="M206.223,133.994a14.635,14.635,0,0,0-5.455.826c-2.926,1.03-5.634,3.639-3.547,6.69,1.612,2.351,3.9,1.136,4.749-.746s1.367-3.705,2.992-3.018Z" transform="translate(-102.042 -72.239)" fill="#f4a28c"/>
  <path id="Caminho_66" data-name="Caminho 66" d="M282.528,74.306a34.172,34.172,0,0,1,19.153,17.885,24.041,24.041,0,0,1-.72,21.934c-3.877,6.776-11.822,14.378-28.116,17.667l-1.9-4.762,15.56-13.665a8.044,8.044,0,0,0,.383-11.75c-4.623-4.623-10.5-11.426-13.15-18.605a6.8,6.8,0,0,1,8.784-8.7Z" transform="translate(-127.326 -51.828)" fill="#5b6eb2"/>
  <path id="Caminho_67" data-name="Caminho 67" d="M282.528,74.306a34.172,34.172,0,0,1,19.153,17.885,24.041,24.041,0,0,1-.72,21.934c-3.877,6.776-11.822,14.378-28.116,17.667l-1.9-4.762,15.56-13.665a8.044,8.044,0,0,0,.383-11.75c-4.623-4.623-10.5-11.426-13.15-18.605a6.8,6.8,0,0,1,8.784-8.7Z" transform="translate(-127.326 -51.828)" fill="#fff" opacity="0.2"/>
  <path id="Caminho_68" data-name="Caminho 68" d="M266.805,155.646s-7.265-.793-7.926,1.981-1.11,4.452-1.11,4.452a19.88,19.88,0,0,0,10.343-3.183Z" transform="translate(-122.851 -79.559)" fill="#f4a28c"/>
  <path id="Caminho_69" data-name="Caminho 69" d="M291.406,165.83a69.2,69.2,0,0,1,.119,10.158,155.108,155.108,0,0,1-2.08,15.91A15.336,15.336,0,0,0,291.228,202l6.6,11.75-4.795,4.782-7.866-10.224a42.852,42.852,0,0,1-8.031-17.832l-2.5-12.773-6.307-8.018Z" transform="translate(-126.437 -83.053)" fill="#24285b"/>
  <path id="Caminho_70" data-name="Caminho 70" d="M221.532,45.01s-2.041,4.716,2.833,4.947,4.815-.76,4.815-.76.3,6.3,4.524,5.515l1.75-1.77s1.981-8.038-1.453-9.8C234,43.141,227.146,36.094,221.532,45.01Z" transform="translate(-110.403 -40.497)" fill="#24285b"/>
  <path id="Caminho_71" data-name="Caminho 71" d="M235.68,60.06s.258-4.108,2.569-3.084S239.035,62.477,235.68,60.06Z" transform="translate(-115.351 -46.037)" fill="#f4a28c"/>
  <path id="Caminho_72" data-name="Caminho 72" d="M111.564,106.646s7.853-5.039,0-12.086-10.931,9.246-16.657-1.763,8.8-22.892-7.265-23.777S81.625,57.984,67.789,56.788,50.214,80.1,60.781,81.721s20.7,2.272,17.832,12.4S86.539,107,91.6,104.52s11.756,2.127,11.756,2.127Z" transform="translate(-53.899 -46.014)" fill="#e6e6e6" opacity="0.45"/>
  <path id="Caminho_73" data-name="Caminho 73" d="M93.087,237.081s-7.826-2.1-9.557-9.365c0,0,12.1-2.5,12.5,10Z" transform="translate(-63.69 -103.996)" fill="#5b6eb2" opacity="0.58"/>
  <path id="Caminho_74" data-name="Caminho 74" d="M98.086,232.2s-5.5-8.586-.727-16.7c0,0,9.246,5.805,5.191,16.7Z" transform="translate(-67.725 -99.918)" fill="#5b6eb2" opacity="0.73"/>
  <path id="Caminho_75" data-name="Caminho 75" d="M101.59,235.181s2.847-9.128,11.558-10.891c0,0,1.664,5.944-5.6,10.891Z" transform="translate(-69.822 -102.902)" fill="#5b6eb2"/>
  <path id="Caminho_76" data-name="Caminho 76" d="M93.01,240.51l1.631,10.832h9.973l1.427-10.832Z" transform="translate(-66.909 -108.409)" fill="#24285b"/>
</svg>
