<svg xmlns="http://www.w3.org/2000/svg" width="67.5" height="73.024" viewBox="0 0 67.5 73.024">
  <g id="super_man" transform="translate(-71.64 -19.998)">
    <path id="Caminho_105" data-name="Caminho 105" d="M99.149,62.45S82.36,69.286,80.4,83.764s-8.691,16.851-8.691,16.851,20.413,4.855,30.617-2.577S123.2,95.759,125.964,86.4s3.7-14.662-3.951-17.872S99.149,62.45,99.149,62.45Z" transform="translate(-0.05 -30.573)" fill="#ffd200"/>
    <path id="Caminho_106" data-name="Caminho 106" d="M92.573,85.457A14.029,14.029,0,0,0,86.19,96.031c-.571,7.239-2.5,17.153-14.55,17.388,0,0,17.8,4.3,28.362-1.206s24.484-6.942,25.287-12.085S124.2,82.922,124.2,82.922l-7.412-2.132-12.648-.56Z" transform="translate(0 -43.378)" opacity="0.04"/>
    <path id="Caminho_107" data-name="Caminho 107" d="M232.081,62.45s10.723,5.3,13.093,14.293-11.892,15.706-11.892,15.706l-1.928-2.538s12.9-12.519.728-16.948C221.862,69.241,232.081,62.45,232.081,62.45Z" transform="translate(-112.276 -30.573)" fill="#f4a28c"/>
    <path id="Caminho_108" data-name="Caminho 108" d="M236.536,63.84s7.275,3.274,10.538,9.794L240.14,78.39s-.56-2.258-4.172-3.377-3.358-2.434-3.358-2.434Z" transform="translate(-115.925 -31.574)" fill="#5b6eb2"/>
    <path id="Caminho_109" data-name="Caminho 109" d="M236.536,63.84s7.275,3.274,10.538,9.794L240.14,78.39s-.56-2.258-4.172-3.377-3.358-2.434-3.358-2.434Z" transform="translate(-115.925 -31.574)" fill="#fff" opacity="0.34"/>
    <ellipse id="Elipse_20" data-name="Elipse 20" cx="29.05" cy="3.098" rx="29.05" ry="3.098" transform="translate(81.039 86.827)" fill="#e6e6e6" opacity="0.45"/>
    <path id="Caminho_110" data-name="Caminho 110" d="M204.568,25.719a11.964,11.964,0,0,1,0,3.078.929.929,0,0,1-1.1.719,2.078,2.078,0,0,1-1.679-1.469l-.621-1.587a1.657,1.657,0,0,1,.652-1.8A1.759,1.759,0,0,1,204.568,25.719Z" transform="translate(-93.239 -3.112)" fill="#f4a28c"/>
    <path id="Caminho_111" data-name="Caminho 111" d="M199.946,32.95l-.686,6.01,3.341.14-.842-4.429Z" transform="translate(-91.91 -9.328)" fill="#f4a28c"/>
    <path id="Caminho_112" data-name="Caminho 112" d="M212.989,33.47l.546.686a.3.3,0,0,1-.165.473l-.7.162Z" transform="translate(-101.568 -9.702)" fill="#f4a28c"/>
    <path id="Caminho_113" data-name="Caminho 113" d="M173.04,158.41l19.064.61-.68,3.369H173.779Z" transform="translate(-73.027 -99.682)" fill="#ffd200"/>
    <path id="Caminho_114" data-name="Caminho 114" d="M206.119,41.006a2.191,2.191,0,0,1-1.119-.6,3.471,3.471,0,0,0,1.36,2.141Z" transform="translate(-96.044 -14.7)" fill="#ce8172" opacity="0.31"/>
    <path id="Caminho_115" data-name="Caminho 115" d="M202.308,22.682a3.223,3.223,0,0,1-.417.109,2.849,2.849,0,0,0-.582.2l-.151.064a.593.593,0,0,0-.353.56A1.628,1.628,0,0,1,199.2,25.4s-1.449-2.169-.28-3.836A3.842,3.842,0,0,1,201.826,20,1.383,1.383,0,0,1,202.308,22.682Z" transform="translate(-91.334)" fill="#24285b"/>
    <path id="Caminho_116" data-name="Caminho 116" d="M204.472,33.983a.456.456,0,0,0,.076-.456c-.1-.249-.305-.576-.641-.529s-.411.6-.173.965a.464.464,0,0,0,.75.02Z" transform="translate(-95.032 -9.359)" fill="#f4a28c"/>
    <path id="Caminho_117" data-name="Caminho 117" d="M169.878,54.4l3.341.14s16.3-.66,12.709,12.617S181.605,84.1,181.605,84.1l-19.075-.61S149.586,53.66,169.878,54.4Z" transform="translate(-62.528 -24.763)" fill="#5b6eb2"/>
    <circle id="Elipse_21" data-name="Elipse 21" cx="4.429" cy="4.429" r="4.429" transform="translate(105.4 37.96)" fill="#fff" opacity="0.34"/>
    <path id="Caminho_118" data-name="Caminho 118" d="M135.406,62.45s-10.723,5.3-13.087,14.293,11.892,15.706,11.892,15.706l1.928-2.538s-12.9-12.519-.728-16.948C145.625,69.241,135.406,62.45,135.406,62.45Z" transform="translate(-36.307 -30.573)" fill="#f4a28c"/>
    <path id="Caminho_119" data-name="Caminho 119" d="M166.322,94.187a32.091,32.091,0,0,0,4.144,21.907h-6.612l-.75-3.976s-3.542-8.988-3.836-13.882S166.322,94.187,166.322,94.187Z" transform="translate(-63.102 -53.389)" opacity="0.08"/>
    <path id="Caminho_120" data-name="Caminho 120" d="M147.444,62.45s-5.6,2.8-8.674,6.08l5.179,6.889s8.823-1.88,8.515-6.889A6.7,6.7,0,0,0,147.444,62.45Z" transform="translate(-48.346 -30.573)" fill="#5b6eb2"/>
    <path id="Caminho_121" data-name="Caminho 121" d="M147.444,62.45s-5.6,2.8-8.674,6.08l5.179,6.889s8.823-1.88,8.515-6.889A6.7,6.7,0,0,0,147.444,62.45Z" transform="translate(-48.346 -30.573)" fill="#fff" opacity="0.34"/>
    <path id="Caminho_122" data-name="Caminho 122" d="M168.478,172.62l-2.8,26.023h2.048s4.757-20.452,9.469-21.593,9.091,21.593,9.091,21.593h2.426l-2.6-26.023Z" transform="translate(-67.726 -109.916)" fill="#24285b"/>
    <path id="Caminho_123" data-name="Caminho 123" d="M169.77,54.781s9.447-6.956,21.512.389C191.282,55.17,176.1,63.313,169.77,54.781Z" transform="translate(-70.672 -22.904)" fill="#ffd200"/>
    <path id="Caminho_124" data-name="Caminho 124" d="M150.34,151.6l3.2-3.554,4.5,4.684a3.154,3.154,0,0,1,.867,2.479c-.115,1.178-.506,2.608-1.738,2.658-2.107.09-1.4-2.633-1.4-2.633Z" transform="translate(-56.678 -92.221)" fill="#5b6eb2"/>
    <path id="Caminho_125" data-name="Caminho 125" d="M241.531,151.6l-3.193-3.554-4.122,4.292a4.147,4.147,0,0,0-1.024,4.052c.241.786.688,1.444,1.517,1.477,2.107.09,1.4-2.633,1.4-2.633Z" transform="translate(-116.231 -92.221)" fill="#5b6eb2"/>
    <path id="Caminho_126" data-name="Caminho 126" d="M157.449,244.55l3.847.551-2.328,6.1-5.479,1.24,3.151-2.572Z" transform="translate(-58.947 -161.719)" fill="#5b6eb2"/>
    <path id="Caminho_127" data-name="Caminho 127" d="M235.74,244.28l-4.39.627,2.325,6.1,5.479,1.24L236,249.672Z" transform="translate(-115.021 -161.524)" fill="#5b6eb2"/>
  </g>
</svg>
